<svg width="187" height="56" viewBox="0 0 187 56" fill="none" xmlns="http://www.w3.org/2000/svg">
<g clip-path="url(#clip0_382_387)">
<path d="M180.074 55.2033H6.92593C3.04741 55.2033 0 52.1559 0 48.2774V6.72182C0 2.84331 3.04741 -0.204102 6.92593 -0.204102H180.074C183.953 -0.204102 187 2.84331 187 6.72182V48.2774C187 52.1559 183.953 55.2033 180.074 55.2033Z" fill="black"/>
<path d="M180.074 0.904047C183.26 0.904047 185.892 3.5359 185.892 6.72182V48.2774C185.892 51.4633 183.26 54.0952 180.074 54.0952H6.92593C3.74 54.0952 1.10815 51.4633 1.10815 48.2774V6.72182C1.10815 3.5359 3.74 0.904047 6.92593 0.904047H180.074ZM180.074 -0.204102H6.92593C3.04741 -0.204102 0 2.98182 0 6.72182V48.2774C0 52.1559 3.04741 55.2033 6.92593 55.2033H180.074C183.953 55.2033 187 52.1559 187 48.2774V6.72182C187 2.98182 183.953 -0.204102 180.074 -0.204102Z" fill="#A6A6A6"/>
<path d="M65.6578 13.9256C65.6578 15.0338 65.3808 16.0034 64.6882 16.696C63.857 17.5271 62.8874 17.9426 61.6408 17.9426C60.3941 17.9426 59.4245 17.5271 58.5933 16.696C57.7622 15.8649 57.3467 14.8952 57.3467 13.6486C57.3467 12.4019 57.7622 11.4323 58.5933 10.6012C59.4245 9.77005 60.3941 9.35449 61.6408 9.35449C62.1948 9.35449 62.7489 9.49301 63.303 9.77005C63.857 10.0471 64.2726 10.3241 64.5496 10.7397L63.857 11.4323C63.303 10.7397 62.6104 10.4626 61.6408 10.4626C60.8096 10.4626 59.9785 10.7397 59.4245 11.4323C58.7319 11.9863 58.4548 12.8175 58.4548 13.7871C58.4548 14.7567 58.7319 15.5878 59.4245 16.1419C60.117 16.696 60.8096 17.1115 61.6408 17.1115C62.6104 17.1115 63.303 16.8345 63.9956 16.1419C64.4111 15.7263 64.6882 15.1723 64.6882 14.4797H61.6408V13.3715H65.6578V13.9256V13.9256ZM72.0296 10.4626H68.2896V13.0945H71.7526V14.0641H68.2896V16.696H72.0296V17.8041H67.1815V9.49301H72.0296V10.4626ZM76.6007 17.8041H75.4926V10.4626H73.1378V9.49301H78.9556V10.4626H76.6007V17.8041ZM82.9726 17.8041V9.49301H84.0808V17.8041H82.9726ZM88.7904 17.8041H87.6822V10.4626H85.3274V9.49301H91.0067V10.4626H88.6519V17.8041H88.7904ZM101.95 16.696C101.119 17.5271 100.149 17.9426 98.9022 17.9426C97.6556 17.9426 96.6859 17.5271 95.8548 16.696C95.0237 15.8649 94.6082 14.8952 94.6082 13.6486C94.6082 12.4019 95.0237 11.4323 95.8548 10.6012C96.6859 9.77005 97.6556 9.35449 98.9022 9.35449C100.149 9.35449 101.119 9.77005 101.95 10.6012C102.781 11.4323 103.196 12.4019 103.196 13.6486C103.196 14.8952 102.781 15.8649 101.95 16.696ZM96.6859 16.0034C97.24 16.5575 98.0711 16.973 98.9022 16.973C99.7333 16.973 100.564 16.696 101.119 16.0034C101.673 15.4493 102.088 14.6182 102.088 13.6486C102.088 12.6789 101.811 11.8478 101.119 11.2938C100.564 10.7397 99.7333 10.3241 98.9022 10.3241C98.0711 10.3241 97.24 10.6012 96.6859 11.2938C96.1319 11.8478 95.7163 12.6789 95.7163 13.6486C95.7163 14.6182 95.9933 15.4493 96.6859 16.0034ZM104.72 17.8041V9.49301H105.967L109.984 16.0034V9.49301H111.092V17.8041H109.984L105.69 11.0167V17.8041H104.72V17.8041Z" fill="white" stroke="white" stroke-width="0.2" stroke-miterlimit="10"/>
<path d="M94.3312 29.9938C91.0067 29.9938 88.3749 32.4871 88.3749 35.9501C88.3749 39.2745 91.0067 41.9064 94.3312 41.9064C97.6556 41.9064 100.287 39.413 100.287 35.9501C100.287 32.3486 97.6556 29.9938 94.3312 29.9938ZM94.3312 39.413C92.5304 39.413 91.0067 37.8893 91.0067 35.8115C91.0067 33.7338 92.5304 32.2101 94.3312 32.2101C96.1319 32.2101 97.6556 33.5953 97.6556 35.8115C97.6556 37.8893 96.1319 39.413 94.3312 39.413ZM81.4489 29.9938C78.1245 29.9938 75.4926 32.4871 75.4926 35.9501C75.4926 39.2745 78.1245 41.9064 81.4489 41.9064C84.7734 41.9064 87.4052 39.413 87.4052 35.9501C87.4052 32.3486 84.7734 29.9938 81.4489 29.9938ZM81.4489 39.413C79.6482 39.413 78.1245 37.8893 78.1245 35.8115C78.1245 33.7338 79.6482 32.2101 81.4489 32.2101C83.2497 32.2101 84.7734 33.5953 84.7734 35.8115C84.7734 37.8893 83.2497 39.413 81.4489 39.413ZM66.0734 31.7945V34.2878H72.0297C71.8912 35.673 71.3371 36.7812 70.6445 37.4738C69.8134 38.3049 68.4282 39.2745 66.0734 39.2745C62.3334 39.2745 59.563 36.3656 59.563 32.6256C59.563 28.8856 62.4719 25.9767 66.0734 25.9767C68.0126 25.9767 69.5363 26.8078 70.6445 27.7775L72.4452 25.9767C70.9215 24.5915 68.9823 23.4834 66.2119 23.4834C61.2252 23.4834 56.9312 27.639 56.9312 32.6256C56.9312 37.6123 61.2252 41.7678 66.2119 41.7678C68.9823 41.7678 70.9215 40.9367 72.5837 39.136C74.246 37.4738 74.8 35.119 74.8 33.3182C74.8 32.7641 74.8 32.2101 74.6615 31.7945H66.0734V31.7945ZM128.961 33.7338C128.407 32.3486 127.022 29.9938 123.974 29.9938C120.927 29.9938 118.433 32.3486 118.433 35.9501C118.433 39.2745 120.927 41.9064 124.251 41.9064C126.883 41.9064 128.545 40.2441 129.099 39.2745L127.16 37.8893C126.467 38.859 125.636 39.5515 124.251 39.5515C122.866 39.5515 122.035 38.9975 121.342 37.7508L129.238 34.4264L128.961 33.7338V33.7338ZM120.927 35.673C120.927 33.4567 122.727 32.2101 123.974 32.2101C124.944 32.2101 125.913 32.7641 126.19 33.4567L120.927 35.673ZM114.416 41.3523H117.048V24.0375H114.416V41.3523ZM110.261 31.2404C109.568 30.5478 108.46 29.8553 107.075 29.8553C104.166 29.8553 101.396 32.4871 101.396 35.8115C101.396 39.136 104.027 41.6293 107.075 41.6293C108.46 41.6293 109.568 40.9367 110.122 40.2441H110.261V41.0752C110.261 43.2915 109.014 44.5382 107.075 44.5382C105.551 44.5382 104.443 43.4301 104.166 42.4604L101.95 43.4301C102.642 44.9538 104.304 46.893 107.213 46.893C110.261 46.893 112.754 45.0923 112.754 40.7982V30.2708H110.261V31.2404V31.2404ZM107.213 39.413C105.413 39.413 103.889 37.8893 103.889 35.8115C103.889 33.7338 105.413 32.2101 107.213 32.2101C109.014 32.2101 110.399 33.7338 110.399 35.8115C110.399 37.8893 109.014 39.413 107.213 39.413ZM141.012 24.0375H134.779V41.3523H137.41V34.8419H141.012C143.921 34.8419 146.691 32.7641 146.691 29.4397C146.691 26.1152 143.921 24.0375 141.012 24.0375V24.0375ZM141.15 32.3486H137.41V26.3923H141.15C143.09 26.3923 144.198 28.0545 144.198 29.3012C144.059 30.8249 142.951 32.3486 141.15 32.3486ZM157.08 29.8553C155.141 29.8553 153.202 30.6864 152.509 32.4871L154.864 33.4567C155.418 32.4871 156.249 32.2101 157.219 32.2101C158.604 32.2101 159.85 33.0412 159.989 34.4264V34.5649C159.573 34.2878 158.465 33.8723 157.357 33.8723C154.864 33.8723 152.37 35.2575 152.37 37.7508C152.37 40.1056 154.448 41.6293 156.664 41.6293C158.465 41.6293 159.296 40.7982 159.989 39.9671H160.127V41.3523H162.621V34.7034C162.344 31.656 159.989 29.8553 157.08 29.8553V29.8553ZM156.803 39.413C155.972 39.413 154.725 38.9975 154.725 37.8893C154.725 36.5041 156.249 36.0886 157.496 36.0886C158.604 36.0886 159.158 36.3656 159.85 36.6427C159.573 38.3049 158.188 39.413 156.803 39.413V39.413ZM171.347 30.2708L168.439 37.7508H168.3L165.253 30.2708H162.482L167.053 40.7982L164.422 46.616H167.053L174.118 30.2708H171.347V30.2708ZM148.076 41.3523H150.708V24.0375H148.076V41.3523Z" fill="white"/>
<path d="M185.759 49.3547C185.759 50.052 185.622 50.7425 185.355 51.3867C185.088 52.031 184.696 52.6162 184.203 53.1091C183.709 53.6019 183.123 53.9927 182.479 54.259C181.834 54.5254 181.143 54.6621 180.446 54.6614H6.55406C5.14466 54.6629 3.79238 54.1046 2.79461 53.1095C1.79685 52.1143 1.2353 50.7637 1.23346 49.3547V7.03533C1.2353 5.62566 1.79662 4.27434 2.79419 3.27808C3.79176 2.28182 5.14402 1.72205 6.55406 1.72168H180.444C181.142 1.72168 181.833 1.85913 182.478 2.12618C183.123 2.39324 183.709 2.78466 184.202 3.27809C184.696 3.77153 185.087 4.35731 185.354 5.00199C185.621 5.64666 185.758 6.33759 185.758 7.03533L185.759 49.3547Z" fill="white"/>
<path d="M180.446 55.8967H6.55408C4.81786 55.8963 3.1527 55.2074 1.92397 53.981C0.695235 52.7547 0.00330355 51.0912 0 49.3554L0 7.03744C0.00256848 5.30083 0.694043 3.63613 1.92273 2.40854C3.15142 1.18096 4.817 0.490724 6.55408 0.489258L180.444 0.489258C182.181 0.491455 183.846 1.18192 185.075 2.40935C186.303 3.63678 186.995 5.30105 186.998 7.03744V49.3554C187.001 52.9634 184.056 55.8967 180.446 55.8967V55.8967Z" fill="#A6A6A6"/>
<path d="M185.759 49.3547C185.759 50.052 185.622 50.7425 185.355 51.3867C185.088 52.031 184.696 52.6162 184.203 53.1091C183.709 53.6019 183.123 53.9927 182.479 54.259C181.834 54.5254 181.143 54.6621 180.446 54.6614H6.55406C5.14466 54.6629 3.79238 54.1046 2.79461 53.1095C1.79685 52.1143 1.2353 50.7637 1.23346 49.3547V7.03533C1.2353 5.62566 1.79662 4.27434 2.79419 3.27808C3.79176 2.28182 5.14402 1.72205 6.55406 1.72168H180.444C181.142 1.72168 181.833 1.85913 182.478 2.12618C183.123 2.39324 183.709 2.78466 184.202 3.27809C184.696 3.77153 185.087 4.35731 185.354 5.00199C185.621 5.64666 185.758 6.33759 185.758 7.03533L185.759 49.3547Z" fill="black"/>
<path d="M41.7554 27.9015C41.7152 23.4358 45.4129 21.2632 45.582 21.1621C43.4878 18.1097 40.242 17.6926 39.1014 17.6594C36.3752 17.3726 33.7309 19.2902 32.3422 19.2902C30.9257 19.2902 28.7873 17.6871 26.4824 17.7342C23.5165 17.7799 20.7419 19.4966 19.2202 22.1625C16.0796 27.5981 18.4219 35.5858 21.4307 39.9795C22.9358 42.1326 24.6946 44.5338 26.9966 44.4493C29.2488 44.3579 30.09 43.0152 32.8078 43.0152C35.5007 43.0152 36.2907 44.4493 38.6385 44.3953C41.0555 44.3579 42.5773 42.2338 44.0297 40.0626C45.7691 37.5977 46.4676 35.1674 46.4953 35.0427C46.4399 35.0233 41.8026 33.2525 41.7554 27.9015V27.9015ZM37.3204 14.7691C38.5317 13.2547 39.3605 11.1943 39.1305 9.10352C37.3773 9.18111 35.1847 10.3159 33.9221 11.7971C32.8051 13.1023 31.8072 15.2416 32.065 17.2534C34.0344 17.4003 36.0565 16.26 37.3204 14.7691V14.7691Z" fill="white"/>
<path d="M180.446 0.489258H87.3042L123.786 55.8967H180.446C182.182 55.8952 183.848 55.2053 185.076 53.9784C186.305 52.7514 186.997 51.0874 187 49.3513V7.03744C186.997 5.30094 186.305 3.63646 185.077 2.40895C183.848 1.18144 182.183 0.491089 180.446 0.489258V0.489258Z" fill="url(#paint0_linear_382_387)"/>
<path d="M74.3761 44.1408H71.2287L69.5046 38.7246H63.5118L61.8695 44.1408H58.8052L64.7439 25.7017H68.4111L74.3761 44.1408V44.1408ZM68.9849 36.4523L67.4257 31.6374C67.2608 31.1456 66.9503 29.9872 66.4957 28.1638H66.4403C66.2573 28.948 65.9649 30.1064 65.5644 31.6374L64.0315 36.4523H68.9849ZM89.6186 37.3293C89.6186 39.5906 89.0047 41.378 87.7753 42.6901C86.6749 43.8581 85.307 44.4414 83.6758 44.4414C81.9142 44.4414 80.6475 43.8138 79.8783 42.5557V49.532H76.9235V35.215C76.9235 33.7948 76.8861 32.3385 76.814 30.8449H79.4126L79.5775 32.9523H79.633C80.6184 31.3645 82.1138 30.5705 84.1206 30.5705C85.6895 30.5705 86.9992 31.1899 88.047 32.43C89.0934 33.6728 89.6186 35.305 89.6186 37.3293ZM86.6084 37.4374C86.6084 36.1433 86.3173 35.0764 85.7325 34.2354C85.0936 33.3611 84.2357 32.9232 83.1602 32.9232C82.4312 32.9232 81.7687 33.1671 81.1769 33.6479C80.5837 34.1328 80.1957 34.766 80.0141 35.5503C79.9331 35.8436 79.887 36.1454 79.8769 36.4495V38.6678C79.8769 39.6335 80.1735 40.4496 80.7667 41.1175C81.3599 41.7825 82.1304 42.1165 83.0784 42.1165C84.1913 42.1165 85.0575 41.6856 85.677 40.8307C86.2979 39.973 86.6084 38.8424 86.6084 37.4374V37.4374ZM104.915 37.3293C104.915 39.5906 104.301 41.378 103.072 42.6901C101.97 43.8581 100.604 44.4414 98.9709 44.4414C97.2094 44.4414 95.9426 43.8138 95.1735 42.5557V49.532H92.2186V35.215C92.2186 33.7948 92.1812 32.3385 92.1092 30.8449H94.7078L94.8727 32.9523H94.9281C95.9122 31.3645 97.4076 30.5705 99.4158 30.5705C100.983 30.5705 102.293 31.1899 103.344 32.43C104.389 33.6728 104.915 35.305 104.915 37.3293V37.3293ZM101.904 37.4374C101.904 36.1433 101.611 35.0764 101.026 34.2354C100.387 33.3611 99.5322 32.9232 98.4567 32.9232C97.7277 32.9232 97.0653 33.1671 96.4707 33.6479C95.8775 34.1328 95.4908 34.766 95.3093 35.5503C95.2192 35.9161 95.1707 36.214 95.1707 36.4495V38.6678C95.1707 39.6335 95.4687 40.4496 96.0591 41.1175C96.6522 41.7812 97.4228 42.1165 98.3736 42.1165C99.4879 42.1165 100.354 41.6856 100.972 40.8307C101.593 39.973 101.904 38.8424 101.904 37.4374V37.4374ZM122.018 38.9685C122.018 40.5383 121.469 41.8144 120.378 42.7996C119.178 43.8748 117.502 44.4137 115.354 44.4137C113.369 44.4137 111.778 44.0313 110.578 43.2651L111.261 40.803C112.557 41.5706 113.981 41.953 115.53 41.953C116.644 41.953 117.511 41.7008 118.129 41.2006C118.748 40.699 119.061 40.0284 119.061 39.1915C119.061 38.4419 118.802 37.8143 118.294 37.303C117.782 36.7931 116.937 36.3179 115.749 35.8814C112.52 34.6774 110.904 32.9163 110.904 30.5996C110.904 29.0866 111.475 27.8479 112.614 26.8794C113.753 25.9123 115.264 25.4287 117.143 25.4287C118.822 25.4287 120.22 25.7211 121.33 26.3044L120.589 28.7125C119.544 28.1472 118.364 27.8645 117.045 27.8645C116.003 27.8645 115.185 28.1209 114.6 28.6308C114.108 29.0866 113.859 29.6422 113.859 30.3017C113.859 31.0292 114.143 31.6333 114.708 32.1071C115.199 32.5436 116.094 33.0188 117.389 33.5287C118.977 34.1689 120.144 34.9143 120.891 35.7706C121.643 36.6269 122.018 37.6951 122.018 38.9685ZM131.812 33.0618H128.555V39.5171C128.555 41.159 129.129 41.9779 130.279 41.9779C130.807 41.9779 131.245 41.9336 131.592 41.8407L131.673 44.084C131.091 44.3015 130.325 44.411 129.376 44.411C128.209 44.411 127.297 44.0549 126.638 43.3427C125.983 42.6305 125.653 41.4375 125.653 39.7582V33.0563H123.713V30.8393H125.653V28.4049L128.555 27.5292V30.8393H131.812V33.0618V33.0618ZM146.478 37.3834C146.478 39.4271 145.893 41.105 144.726 42.4171C143.505 43.7681 141.881 44.4414 139.856 44.4414C137.902 44.4414 136.348 43.7944 135.19 42.5017C134.031 41.2062 133.452 39.574 133.452 37.6051C133.452 35.5447 134.05 33.8571 135.244 32.545C136.44 31.2315 138.05 30.5747 140.075 30.5747C142.026 30.5747 143.594 31.2231 144.78 32.5173C145.914 33.7726 146.478 35.3937 146.478 37.3834ZM143.415 37.4513C143.415 36.2334 143.152 35.1886 142.624 34.3143C142.004 33.2585 141.117 32.7306 139.968 32.7306C138.785 32.7306 137.877 33.2585 137.259 34.3143C136.729 35.1886 136.466 36.2514 136.466 37.5067C136.466 38.726 136.729 39.7735 137.259 40.645C137.898 41.7008 138.789 42.2287 139.943 42.2287C141.073 42.2287 141.958 41.6897 142.599 40.6187C143.142 39.7236 143.415 38.672 143.415 37.4513ZM156.087 33.4428C155.779 33.3874 155.468 33.36 155.155 33.3611C154.116 33.3611 153.312 33.7518 152.747 34.5388C152.256 35.2316 152.009 36.1073 152.009 37.1645V44.1408H149.054V35.0321C149.057 33.6363 149.028 32.2407 148.968 30.8463H151.542L151.65 33.3902H151.732C152.045 32.5159 152.536 31.8106 153.209 31.2827C153.826 30.8214 154.575 30.5716 155.345 30.5705C155.618 30.5705 155.865 30.5899 156.084 30.6246L156.087 33.4428V33.4428ZM169.301 36.8638C169.309 37.3128 169.273 37.7616 169.193 38.2036H160.329C160.362 39.5171 160.792 40.5231 161.615 41.2159C162.362 41.8338 163.328 42.1442 164.514 42.1442C165.827 42.1442 167.024 41.9363 168.101 41.5165L168.564 43.5658C167.306 44.1145 165.82 44.3874 164.106 44.3874C162.043 44.3874 160.425 43.7805 159.247 42.5695C158.071 41.3572 157.482 39.7278 157.482 37.6868C157.482 35.6833 158.03 34.0137 159.126 32.6821C160.274 31.2606 161.824 30.5498 163.776 30.5498C165.693 30.5498 167.144 31.2606 168.129 32.6821C168.909 33.8086 169.301 35.2053 169.301 36.8638V36.8638ZM166.484 36.0976C166.505 35.2205 166.311 34.4654 165.91 33.8266C165.399 33.0036 164.611 32.5935 163.557 32.5935C162.591 32.5935 161.804 32.9939 161.205 33.7975C160.713 34.4363 160.42 35.2039 160.33 36.0948L166.484 36.0976Z" fill="white"/>
<path d="M62.6595 19.1804C61.8377 19.1804 61.1267 19.1403 60.5349 19.0724V10.1576C61.3626 10.0298 62.199 9.9668 63.0365 9.9692C66.4251 9.9692 67.9857 11.636 67.9857 14.3531C67.9857 17.4873 66.1424 19.1804 62.6595 19.1804ZM63.1557 11.1123C62.6984 11.1123 62.3089 11.14 61.986 11.2065V17.9833C62.1606 18.011 62.496 18.0235 62.9672 18.0235C65.1875 18.0235 66.4515 16.7599 66.4515 14.3933C66.4515 12.2831 65.3081 11.1123 63.1557 11.1123V11.1123ZM72.8489 19.2483C70.9391 19.2483 69.7015 17.8226 69.7015 15.887C69.7015 13.8696 70.9654 12.4313 72.957 12.4313C74.8391 12.4313 76.1045 13.7892 76.1045 15.7803C76.1045 17.8226 74.8003 19.2483 72.8489 19.2483ZM72.9044 13.4927C71.8552 13.4927 71.183 14.4737 71.183 15.8454C71.183 17.1908 71.8691 18.1717 72.8905 18.1717C73.9119 18.1717 74.598 17.1229 74.598 15.8177C74.598 14.4875 73.9258 13.4927 72.9044 13.4927ZM86.9951 12.5657L84.9509 19.1001H83.619L82.7722 16.2624C82.5617 15.5683 82.3863 14.864 82.2469 14.1522H82.2192C82.1125 14.8644 81.9102 15.578 81.6953 16.2624L80.7945 19.1001H79.4487L77.5251 12.5657H79.0177L79.7578 15.6722C79.9324 16.4121 80.0793 17.1104 80.2013 17.7699H80.229C80.3357 17.2199 80.5104 16.5326 80.7668 15.686L81.6953 12.5671H82.8789L83.7673 15.6195C83.9821 16.3594 84.1568 17.0855 84.2926 17.7713H84.3314C84.4256 17.0993 84.5739 16.3858 84.7749 15.6195L85.569 12.5671L86.9951 12.5657V12.5657ZM94.5208 19.1001H93.0683V15.348C93.0683 14.1924 92.6248 13.6132 91.7503 13.6132C90.8896 13.6132 90.2978 14.3531 90.2978 15.2136V19.1001H88.8454V14.4335C88.8454 13.8557 88.8315 13.2364 88.7913 12.5644H90.0691L90.1371 13.5731H90.1772C90.5681 12.8747 91.3608 12.4313 92.2492 12.4313C93.6213 12.4313 94.5221 13.4802 94.5221 15.1872L94.5208 19.1001V19.1001ZM98.5261 19.1001H97.0723V9.56738H98.5261V19.1001ZM103.822 19.2483C101.913 19.2483 100.674 17.8226 100.674 15.887C100.674 13.8696 101.938 12.4313 103.928 12.4313C105.812 12.4313 107.076 13.7892 107.076 15.7803C107.077 17.8226 105.772 19.2483 103.822 19.2483ZM103.876 13.4927C102.827 13.4927 102.154 14.4737 102.154 15.8454C102.154 17.1908 102.842 18.1717 103.861 18.1717C104.883 18.1717 105.568 17.1229 105.568 15.8177C105.569 14.4875 104.899 13.4927 103.876 13.4927V13.4927ZM112.803 19.1001L112.697 18.3477H112.658C112.215 18.9532 111.568 19.2483 110.747 19.2483C109.576 19.2483 108.745 18.4281 108.745 17.3252C108.745 15.7124 110.143 14.8783 112.564 14.8783V14.7577C112.564 13.8973 112.108 13.4664 111.207 13.4664C110.563 13.4664 109.997 13.6285 109.5 13.9513L109.205 12.9967C109.809 12.6198 110.563 12.4313 111.449 12.4313C113.156 12.4313 114.018 13.332 114.018 15.1346V17.5413C114.018 18.2008 114.047 18.7121 114.112 19.1015L112.803 19.1001V19.1001ZM112.603 15.8454C110.99 15.8454 110.18 16.2361 110.18 17.1631C110.18 17.8489 110.598 18.1842 111.177 18.1842C111.916 18.1842 112.603 17.6203 112.603 16.8541V15.8454V15.8454ZM121.071 19.1001L121.003 18.0512H120.963C120.546 18.8437 119.845 19.2483 118.865 19.2483C117.289 19.2483 116.122 17.8628 116.122 15.9133C116.122 13.8696 117.332 12.43 118.984 12.43C119.858 12.43 120.478 12.7251 120.827 13.3181H120.856V9.56738H122.31V17.339C122.31 17.9708 122.325 18.5625 122.364 19.1001H121.071ZM120.856 15.2551C120.856 14.3407 120.251 13.5606 119.326 13.5606C118.249 13.5606 117.591 14.5152 117.591 15.8592C117.591 17.1769 118.274 18.0789 119.297 18.0789C120.21 18.0789 120.856 17.285 120.856 16.3442V15.2551ZM131.528 19.2483C129.62 19.2483 128.382 17.8226 128.382 15.887C128.382 13.8696 129.646 12.4313 131.636 12.4313C133.52 12.4313 134.784 13.7892 134.784 15.7803C134.785 17.8226 133.481 19.2483 131.528 19.2483ZM131.582 13.4927C130.534 13.4927 129.862 14.4737 129.862 15.8454C129.862 17.1908 130.548 18.1717 131.568 18.1717C132.591 18.1717 133.276 17.1229 133.276 15.8177C133.278 14.4875 132.606 13.4927 131.582 13.4927ZM142.595 19.1001H141.141V15.348C141.141 14.1924 140.697 13.6132 139.823 13.6132C138.962 13.6132 138.372 14.3531 138.372 15.2136V19.1001H136.918V14.4335C136.918 13.8557 136.904 13.2364 136.864 12.5644H138.142L138.21 13.5731H138.25C138.639 12.8747 139.433 12.43 140.32 12.43C141.692 12.43 142.595 13.4788 142.595 15.1859V19.1001ZM152.367 13.6548H150.769V16.8277C150.769 17.6355 151.049 18.0387 151.614 18.0387C151.871 18.0387 152.085 18.011 152.259 17.9708L152.299 19.0738C152.018 19.1818 151.641 19.2359 151.172 19.2359C150.027 19.2359 149.343 18.604 149.343 16.9497V13.6548H148.389V12.5657H149.343V11.3686L150.769 10.9377V12.5644H152.367V13.6548V13.6548ZM160.056 19.1001H158.605V15.3757C158.605 14.2063 158.163 13.6146 157.287 13.6146C156.534 13.6146 155.833 14.1259 155.833 15.1609V19.1001H154.382V9.56738H155.833V13.4927H155.862C156.32 12.7805 156.982 12.43 157.827 12.43C159.211 12.43 160.056 13.5052 160.056 15.2136V19.1001V19.1001ZM167.934 16.1821H163.575C163.603 17.4194 164.422 18.1177 165.634 18.1177C166.279 18.1177 166.872 18.0096 167.396 17.8087L167.622 18.8174C167.004 19.0862 166.276 19.2206 165.429 19.2206C163.385 19.2206 162.175 17.9293 162.175 15.9271C162.175 13.9236 163.414 12.4175 165.266 12.4175C166.936 12.4175 167.984 13.6548 167.984 15.5239C167.993 15.7445 167.976 15.9654 167.934 16.1821V16.1821ZM166.602 15.1471C166.602 14.1384 166.093 13.4262 165.165 13.4262C164.33 13.4262 163.671 14.1522 163.576 15.1471H166.602V15.1471Z" fill="white"/>
</g>
<defs>
<linearGradient id="paint0_linear_382_387" x1="137.151" y1="56.0438" x2="137.151" y2="-143.782" gradientUnits="userSpaceOnUse">
<stop stop-color="#1A1A1A" stop-opacity="0.1"/>
<stop offset="0.123" stop-color="#212121" stop-opacity="0.151"/>
<stop offset="0.308" stop-color="#353535" stop-opacity="0.227"/>
<stop offset="0.532" stop-color="#575757" stop-opacity="0.318"/>
<stop offset="0.783" stop-color="#858585" stop-opacity="0.421"/>
<stop offset="1" stop-color="#B3B3B3" stop-opacity="0.51"/>
</linearGradient>
<clipPath id="clip0_382_387">
<rect width="187" height="56" fill="white"/>
</clipPath>
</defs>
</svg>
