<svg width="187" height="56" viewBox="0 0 187 56" fill="none" xmlns="http://www.w3.org/2000/svg">
<g clip-path="url(#clip0_382_374)">
<path d="M180.074 55.2033H6.92593C3.04741 55.2033 0 52.1559 0 48.2774V6.72182C0 2.84331 3.04741 -0.204102 6.92593 -0.204102H180.074C183.953 -0.204102 187 2.84331 187 6.72182V48.2774C187 52.1559 183.953 55.2033 180.074 55.2033Z" fill="black"/>
<path d="M180.074 0.904047C183.26 0.904047 185.892 3.5359 185.892 6.72182V48.2774C185.892 51.4633 183.26 54.0952 180.074 54.0952H6.92593C3.74 54.0952 1.10815 51.4633 1.10815 48.2774V6.72182C1.10815 3.5359 3.74 0.904047 6.92593 0.904047H180.074ZM180.074 -0.204102H6.92593C3.04741 -0.204102 0 2.98182 0 6.72182V48.2774C0 52.1559 3.04741 55.2033 6.92593 55.2033H180.074C183.953 55.2033 187 52.1559 187 48.2774V6.72182C187 2.98182 183.953 -0.204102 180.074 -0.204102Z" fill="#A6A6A6"/>
<path d="M65.6578 13.9256C65.6578 15.0338 65.3808 16.0034 64.6882 16.696C63.857 17.5271 62.8874 17.9426 61.6408 17.9426C60.3941 17.9426 59.4245 17.5271 58.5933 16.696C57.7622 15.8649 57.3467 14.8952 57.3467 13.6486C57.3467 12.4019 57.7622 11.4323 58.5933 10.6012C59.4245 9.77005 60.3941 9.35449 61.6408 9.35449C62.1948 9.35449 62.7489 9.49301 63.303 9.77005C63.857 10.0471 64.2726 10.3241 64.5496 10.7397L63.857 11.4323C63.303 10.7397 62.6104 10.4626 61.6408 10.4626C60.8096 10.4626 59.9785 10.7397 59.4245 11.4323C58.7319 11.9863 58.4548 12.8175 58.4548 13.7871C58.4548 14.7567 58.7319 15.5878 59.4245 16.1419C60.117 16.696 60.8096 17.1115 61.6408 17.1115C62.6104 17.1115 63.303 16.8345 63.9956 16.1419C64.4111 15.7263 64.6882 15.1723 64.6882 14.4797H61.6408V13.3715H65.6578V13.9256V13.9256ZM72.0296 10.4626H68.2896V13.0945H71.7526V14.0641H68.2896V16.696H72.0296V17.8041H67.1815V9.49301H72.0296V10.4626ZM76.6007 17.8041H75.4926V10.4626H73.1378V9.49301H78.9556V10.4626H76.6007V17.8041ZM82.9726 17.8041V9.49301H84.0808V17.8041H82.9726ZM88.7904 17.8041H87.6822V10.4626H85.3274V9.49301H91.0067V10.4626H88.6519V17.8041H88.7904ZM101.95 16.696C101.119 17.5271 100.149 17.9426 98.9022 17.9426C97.6556 17.9426 96.6859 17.5271 95.8548 16.696C95.0237 15.8649 94.6082 14.8952 94.6082 13.6486C94.6082 12.4019 95.0237 11.4323 95.8548 10.6012C96.6859 9.77005 97.6556 9.35449 98.9022 9.35449C100.149 9.35449 101.119 9.77005 101.95 10.6012C102.781 11.4323 103.196 12.4019 103.196 13.6486C103.196 14.8952 102.781 15.8649 101.95 16.696ZM96.6859 16.0034C97.24 16.5575 98.0711 16.973 98.9022 16.973C99.7333 16.973 100.564 16.696 101.119 16.0034C101.673 15.4493 102.088 14.6182 102.088 13.6486C102.088 12.6789 101.811 11.8478 101.119 11.2938C100.564 10.7397 99.7333 10.3241 98.9022 10.3241C98.0711 10.3241 97.24 10.6012 96.6859 11.2938C96.1319 11.8478 95.7163 12.6789 95.7163 13.6486C95.7163 14.6182 95.9933 15.4493 96.6859 16.0034ZM104.72 17.8041V9.49301H105.967L109.984 16.0034V9.49301H111.092V17.8041H109.984L105.69 11.0167V17.8041H104.72V17.8041Z" fill="white" stroke="white" stroke-width="0.2" stroke-miterlimit="10"/>
<path d="M94.3311 29.9938C91.0066 29.9938 88.3748 32.4871 88.3748 35.9501C88.3748 39.2745 91.0066 41.9064 94.3311 41.9064C97.6555 41.9064 100.287 39.413 100.287 35.9501C100.287 32.3486 97.6555 29.9938 94.3311 29.9938ZM94.3311 39.413C92.5304 39.413 91.0066 37.8893 91.0066 35.8115C91.0066 33.7338 92.5304 32.2101 94.3311 32.2101C96.1318 32.2101 97.6555 33.5953 97.6555 35.8115C97.6555 37.8893 96.1318 39.413 94.3311 39.413ZM81.4489 29.9938C78.1244 29.9938 75.4926 32.4871 75.4926 35.9501C75.4926 39.2745 78.1244 41.9064 81.4489 41.9064C84.7733 41.9064 87.4052 39.413 87.4052 35.9501C87.4052 32.3486 84.7733 29.9938 81.4489 29.9938ZM81.4489 39.413C79.6481 39.413 78.1244 37.8893 78.1244 35.8115C78.1244 33.7338 79.6481 32.2101 81.4489 32.2101C83.2496 32.2101 84.7733 33.5953 84.7733 35.8115C84.7733 37.8893 83.2496 39.413 81.4489 39.413ZM66.0733 31.7945V34.2878H72.0296C71.8911 35.673 71.337 36.7812 70.6444 37.4738C69.8133 38.3049 68.4281 39.2745 66.0733 39.2745C62.3333 39.2745 59.5629 36.3656 59.5629 32.6256C59.5629 28.8856 62.4718 25.9767 66.0733 25.9767C68.0126 25.9767 69.5363 26.8078 70.6444 27.7775L72.4452 25.9767C70.9215 24.5915 68.9822 23.4834 66.2118 23.4834C61.2252 23.4834 56.9311 27.639 56.9311 32.6256C56.9311 37.6123 61.2252 41.7678 66.2118 41.7678C68.9822 41.7678 70.9215 40.9367 72.5837 39.136C74.2459 37.4738 74.8 35.119 74.8 33.3182C74.8 32.7641 74.8 32.2101 74.6615 31.7945H66.0733V31.7945ZM128.961 33.7338C128.407 32.3486 127.021 29.9938 123.974 29.9938C120.927 29.9938 118.433 32.3486 118.433 35.9501C118.433 39.2745 120.927 41.9064 124.251 41.9064C126.883 41.9064 128.545 40.2441 129.099 39.2745L127.16 37.8893C126.467 38.859 125.636 39.5515 124.251 39.5515C122.866 39.5515 122.035 38.9975 121.342 37.7508L129.238 34.4264L128.961 33.7338V33.7338ZM120.927 35.673C120.927 33.4567 122.727 32.2101 123.974 32.2101C124.944 32.2101 125.913 32.7641 126.19 33.4567L120.927 35.673ZM114.416 41.3523H117.048V24.0375H114.416V41.3523ZM110.261 31.2404C109.568 30.5478 108.46 29.8553 107.075 29.8553C104.166 29.8553 101.396 32.4871 101.396 35.8115C101.396 39.136 104.027 41.6293 107.075 41.6293C108.46 41.6293 109.568 40.9367 110.122 40.2441H110.261V41.0752C110.261 43.2915 109.014 44.5382 107.075 44.5382C105.551 44.5382 104.443 43.4301 104.166 42.4604L101.95 43.4301C102.642 44.9538 104.304 46.893 107.213 46.893C110.261 46.893 112.754 45.0923 112.754 40.7982V30.2708H110.261V31.2404V31.2404ZM107.213 39.413C105.413 39.413 103.889 37.8893 103.889 35.8115C103.889 33.7338 105.413 32.2101 107.213 32.2101C109.014 32.2101 110.399 33.7338 110.399 35.8115C110.399 37.8893 109.014 39.413 107.213 39.413ZM141.012 24.0375H134.779V41.3523H137.41V34.8419H141.012C143.921 34.8419 146.691 32.7641 146.691 29.4397C146.691 26.1152 143.921 24.0375 141.012 24.0375V24.0375ZM141.15 32.3486H137.41V26.3923H141.15C143.09 26.3923 144.198 28.0545 144.198 29.3012C144.059 30.8249 142.951 32.3486 141.15 32.3486ZM157.08 29.8553C155.141 29.8553 153.201 30.6864 152.509 32.4871L154.864 33.4567C155.418 32.4871 156.249 32.2101 157.219 32.2101C158.604 32.2101 159.85 33.0412 159.989 34.4264V34.5649C159.573 34.2878 158.465 33.8723 157.357 33.8723C154.864 33.8723 152.37 35.2575 152.37 37.7508C152.37 40.1056 154.448 41.6293 156.664 41.6293C158.465 41.6293 159.296 40.7982 159.989 39.9671H160.127V41.3523H162.621V34.7034C162.344 31.656 159.989 29.8553 157.08 29.8553V29.8553ZM156.803 39.413C155.972 39.413 154.725 38.9975 154.725 37.8893C154.725 36.5041 156.249 36.0886 157.496 36.0886C158.604 36.0886 159.158 36.3656 159.85 36.6427C159.573 38.3049 158.188 39.413 156.803 39.413V39.413ZM171.347 30.2708L168.439 37.7508H168.3L165.253 30.2708H162.482L167.053 40.7982L164.421 46.616H167.053L174.118 30.2708H171.347V30.2708ZM148.076 41.3523H150.708V24.0375H148.076V41.3523Z" fill="white"/>
<path d="M14.4059 10.1846C13.9904 10.6001 13.8519 11.2927 13.8519 12.1238V42.7364C13.8519 43.5675 14.1289 44.2601 14.5445 44.6757L14.683 44.8142L31.8593 27.6379V27.3609L14.4059 10.1846Z" fill="url(#paint0_linear_382_374)"/>
<path d="M37.4 33.4557L31.7208 27.7765V27.3609L37.4 21.6816L37.5385 21.8202L44.326 25.6987C46.2652 26.8068 46.2652 28.6076 44.326 29.7157L37.4 33.4557V33.4557Z" fill="url(#paint1_linear_382_374)"/>
<path d="M37.5385 33.3178L31.7208 27.5L14.4059 44.8148C15.0985 45.5074 16.0682 45.5074 17.3148 44.9533L37.5385 33.3178" fill="url(#paint2_linear_382_374)"/>
<path d="M37.5385 21.6819L17.3148 10.1848C16.0682 9.49225 15.0985 9.63076 14.4059 10.3234L31.7208 27.4997L37.5385 21.6819V21.6819Z" fill="url(#paint3_linear_382_374)"/>
<path opacity="0.2" d="M37.4 33.1787L17.3148 44.5372C16.2067 45.2298 15.2371 45.0913 14.5445 44.5372L14.4059 44.6758L14.5445 44.8143C15.2371 45.3683 16.2067 45.5069 17.3148 44.8143L37.4 33.1787Z" fill="black"/>
<path opacity="0.12" d="M14.4059 44.5378C13.9904 44.1222 13.8519 43.4296 13.8519 42.5985V42.737C13.8519 43.5682 14.1289 44.2607 14.5445 44.6763V44.5378H14.4059ZM44.3259 29.3007L37.4 33.1793L37.5385 33.3178L44.3259 29.4393C45.2956 28.8852 45.7111 28.1926 45.7111 27.5C45.7111 28.1926 45.1571 28.7467 44.3259 29.3007V29.3007Z" fill="black"/>
<path opacity="0.25" d="M17.3148 10.3235L44.3259 25.6991C45.1571 26.2531 45.7111 26.8072 45.7111 27.4998C45.7111 26.8072 45.2956 26.1146 44.3259 25.5606L17.3148 10.185C15.3756 9.07685 13.8519 9.90796 13.8519 12.1243V12.2628C13.8519 10.185 15.3756 9.21537 17.3148 10.3235Z" fill="white"/>
</g>
<defs>
<linearGradient id="paint0_linear_382_374" x1="30.1971" y1="11.8606" x2="6.94949" y2="35.1068" gradientUnits="userSpaceOnUse">
<stop stop-color="#00A0FF"/>
<stop offset="0.007" stop-color="#00A1FF"/>
<stop offset="0.26" stop-color="#00BEFF"/>
<stop offset="0.512" stop-color="#00D2FF"/>
<stop offset="0.76" stop-color="#00DFFF"/>
<stop offset="1" stop-color="#00E3FF"/>
</linearGradient>
<linearGradient id="paint1_linear_382_374" x1="46.8664" y1="27.5008" x2="13.3491" y2="27.5008" gradientUnits="userSpaceOnUse">
<stop stop-color="#FFE000"/>
<stop offset="0.409" stop-color="#FFBD00"/>
<stop offset="0.775" stop-color="#FFA500"/>
<stop offset="1" stop-color="#FF9C00"/>
</linearGradient>
<linearGradient id="paint2_linear_382_374" x1="34.39" y1="30.6804" x2="2.86597" y2="62.2044" gradientUnits="userSpaceOnUse">
<stop stop-color="#FF3A44"/>
<stop offset="1" stop-color="#C31162"/>
</linearGradient>
<linearGradient id="paint3_linear_382_374" x1="10.1077" y1="0.0397408" x2="24.1854" y2="14.1174" gradientUnits="userSpaceOnUse">
<stop stop-color="#32A071"/>
<stop offset="0.069" stop-color="#2DA771"/>
<stop offset="0.476" stop-color="#15CF74"/>
<stop offset="0.801" stop-color="#06E775"/>
<stop offset="1" stop-color="#00F076"/>
</linearGradient>
<clipPath id="clip0_382_374">
<rect width="187" height="56" fill="white"/>
</clipPath>
</defs>
</svg>
