<svg width="134" height="25" viewBox="0 0 134 25" fill="none" xmlns="http://www.w3.org/2000/svg">
<path d="M2.67472 7.59055V5.18182H14.0234V7.59055H9.79297V19H6.90518V7.59055H2.67472ZM17.3835 19.1957C16.7223 19.1957 16.133 19.081 15.6158 18.8516C15.0985 18.6177 14.6892 18.2736 14.3878 17.8192C14.0909 17.3604 13.9425 16.7892 13.9425 16.1055C13.9425 15.5297 14.0482 15.0462 14.2596 14.6548C14.471 14.2635 14.7589 13.9486 15.1232 13.7102C15.4876 13.4718 15.9014 13.2919 16.3647 13.1705C16.8325 13.049 17.3228 12.9635 17.8356 12.9141C18.4383 12.8511 18.9241 12.7926 19.293 12.7386C19.6618 12.6802 19.9295 12.5947 20.0959 12.4822C20.2623 12.3698 20.3455 12.2034 20.3455 11.983V11.9425C20.3455 11.5152 20.2106 11.1845 19.9407 10.9506C19.6753 10.7167 19.2975 10.5998 18.8072 10.5998C18.2899 10.5998 17.8783 10.7145 17.5724 10.9439C17.2666 11.1688 17.0642 11.4522 16.9652 11.794L14.3068 11.5781C14.4418 10.9484 14.7071 10.4041 15.103 9.94531C15.4988 9.48201 16.0094 9.12666 16.6346 8.87926C17.2643 8.62737 17.993 8.50142 18.8207 8.50142C19.3964 8.50142 19.9474 8.56889 20.4737 8.70383C21.0045 8.83878 21.4746 9.04794 21.8839 9.33132C22.2977 9.6147 22.6238 9.97905 22.8622 10.4244C23.1006 10.8652 23.2198 11.3937 23.2198 12.0099V19H20.494V17.5629H20.413C20.2466 17.8867 20.0239 18.1723 19.745 18.4197C19.4661 18.6626 19.131 18.8538 18.7397 18.9933C18.3484 19.1282 17.8963 19.1957 17.3835 19.1957ZM18.2067 17.212C18.6295 17.212 19.0028 17.1288 19.3267 16.9624C19.6506 16.7914 19.9047 16.562 20.0891 16.2741C20.2736 15.9863 20.3658 15.6602 20.3658 15.2958V14.196C20.2758 14.2545 20.1521 14.3085 19.9947 14.358C19.8417 14.4029 19.6686 14.4457 19.4751 14.4862C19.2817 14.5221 19.0883 14.5559 18.8949 14.5874C18.7015 14.6143 18.526 14.6391 18.3686 14.6616C18.0313 14.7111 17.7366 14.7898 17.4847 14.8977C17.2328 15.0057 17.0372 15.1519 16.8977 15.3363C16.7583 15.5162 16.6886 15.7411 16.6886 16.011C16.6886 16.4023 16.8303 16.7015 17.1136 16.9084C17.4015 17.1108 17.7659 17.212 18.2067 17.212ZM30.1323 19.2024C29.0707 19.2024 28.1576 18.9775 27.3929 18.5277C26.6328 18.0734 26.048 17.4437 25.6387 16.6385C25.2338 15.8333 25.0314 14.9067 25.0314 13.8587C25.0314 12.7971 25.2361 11.866 25.6454 11.0653C26.0592 10.2602 26.6462 9.63269 27.4064 9.18288C28.1666 8.72857 29.0707 8.50142 30.1188 8.50142C31.0229 8.50142 31.8146 8.6656 32.4938 8.99396C33.173 9.32232 33.7105 9.78338 34.1064 10.3771C34.5022 10.9709 34.7203 11.6681 34.7608 12.4688H32.0485C31.972 11.9515 31.7696 11.5354 31.4412 11.2205C31.1174 10.9012 30.6923 10.7415 30.166 10.7415C29.7207 10.7415 29.3316 10.8629 28.9988 11.1058C28.6704 11.3442 28.414 11.6928 28.2296 12.1516C28.0452 12.6104 27.9529 13.166 27.9529 13.8182C27.9529 14.4794 28.0429 15.0417 28.2228 15.505C28.4073 15.9683 28.6659 16.3214 28.9988 16.5643C29.3316 16.8072 29.7207 16.9286 30.166 16.9286C30.4944 16.9286 30.789 16.8612 31.0499 16.7262C31.3153 16.5913 31.5334 16.3956 31.7044 16.1392C31.8798 15.8783 31.9945 15.5657 32.0485 15.2013H34.7608C34.7158 15.993 34.4999 16.6902 34.1131 17.293C33.7308 17.8912 33.2022 18.359 32.5275 18.6964C31.8528 19.0337 31.0544 19.2024 30.1323 19.2024ZM42.1135 8.63636V10.7955H35.8724V8.63636H42.1135ZM37.2893 6.15341H40.1636V15.8153C40.1636 16.0807 40.2041 16.2876 40.2851 16.4361C40.366 16.58 40.4785 16.6812 40.6224 16.7397C40.7709 16.7982 40.9418 16.8274 41.1352 16.8274C41.2702 16.8274 41.4051 16.8162 41.54 16.7937C41.675 16.7667 41.7784 16.7464 41.8504 16.733L42.3025 18.8718C42.1585 18.9168 41.9561 18.9685 41.6952 19.027C41.4343 19.09 41.1172 19.1282 40.7439 19.1417C40.0512 19.1687 39.4439 19.0765 38.9221 18.8651C38.4049 18.6536 38.0023 18.3253 37.7144 17.88C37.4265 17.4347 37.2848 16.8724 37.2893 16.1932V6.15341ZM43.9859 19V8.63636H46.8602V19H43.9859ZM45.4298 7.30043C45.0025 7.30043 44.6359 7.15874 44.33 6.87535C44.0286 6.58748 43.8779 6.24337 43.8779 5.84304C43.8779 5.44721 44.0286 5.1076 44.33 4.82422C44.6359 4.53634 45.0025 4.3924 45.4298 4.3924C45.8571 4.3924 46.2214 4.53634 46.5228 4.82422C46.8287 5.1076 46.9816 5.44721 46.9816 5.84304C46.9816 6.24337 46.8287 6.58748 46.5228 6.87535C46.2214 7.15874 45.8571 7.30043 45.4298 7.30043ZM53.8452 19.2024C52.7836 19.2024 51.8705 18.9775 51.1058 18.5277C50.3456 18.0734 49.7609 17.4437 49.3516 16.6385C48.9467 15.8333 48.7443 14.9067 48.7443 13.8587C48.7443 12.7971 48.949 11.866 49.3583 11.0653C49.7721 10.2602 50.3591 9.63269 51.1193 9.18288C51.8795 8.72857 52.7836 8.50142 53.8317 8.50142C54.7358 8.50142 55.5275 8.6656 56.2067 8.99396C56.8859 9.32232 57.4234 9.78338 57.8192 10.3771C58.2151 10.9709 58.4332 11.6681 58.4737 12.4688H55.7614C55.6849 11.9515 55.4825 11.5354 55.1541 11.2205C54.8303 10.9012 54.4052 10.7415 53.8789 10.7415C53.4336 10.7415 53.0445 10.8629 52.7116 11.1058C52.3833 11.3442 52.1269 11.6928 51.9425 12.1516C51.758 12.6104 51.6658 13.166 51.6658 13.8182C51.6658 14.4794 51.7558 15.0417 51.9357 15.505C52.1201 15.9683 52.3788 16.3214 52.7116 16.5643C53.0445 16.8072 53.4336 16.9286 53.8789 16.9286C54.2073 16.9286 54.5019 16.8612 54.7628 16.7262C55.0282 16.5913 55.2463 16.3956 55.4173 16.1392C55.5927 15.8783 55.7074 15.5657 55.7614 15.2013H58.4737C58.4287 15.993 58.2128 16.6902 57.826 17.293C57.4437 17.8912 56.9151 18.359 56.2404 18.6964C55.5657 19.0337 54.7673 19.2024 53.8452 19.2024ZM60.368 5.18182H63.971L67.7764 14.4659H67.9383L71.7437 5.18182H75.3467V19H72.5129V10.006H72.3982L68.8222 18.9325H66.8925L63.3165 9.9723H63.2018V19H60.368V5.18182ZM82.4228 19.2024C81.3567 19.2024 80.4391 18.9865 79.6699 18.5547C78.9052 18.1184 78.316 17.5021 77.9022 16.706C77.4883 15.9053 77.2814 14.9585 77.2814 13.8654C77.2814 12.7994 77.4883 11.8638 77.9022 11.0586C78.316 10.2534 78.8985 9.62595 79.6497 9.17614C80.4054 8.72633 81.2915 8.50142 82.3081 8.50142C82.9918 8.50142 83.6283 8.61162 84.2175 8.83203C84.8113 9.04794 85.3285 9.37405 85.7694 9.81037C86.2147 10.2467 86.561 10.7955 86.8084 11.4567C87.0558 12.1134 87.1795 12.8826 87.1795 13.7642V14.5536H78.4284V12.7724H84.4739C84.4739 12.3585 84.3839 11.992 84.204 11.6726C84.0241 11.3532 83.7744 11.1036 83.4551 10.9237C83.1402 10.7392 82.7736 10.647 82.3553 10.647C81.919 10.647 81.5321 10.7482 81.1948 10.9506C80.8619 11.1486 80.601 11.4162 80.4121 11.7536C80.2232 12.0864 80.1265 12.4575 80.122 12.8668V14.5604C80.122 15.0732 80.2164 15.5162 80.4054 15.8896C80.5988 16.2629 80.8709 16.5508 81.2218 16.7532C81.5726 16.9556 81.9887 17.0568 82.47 17.0568C82.7894 17.0568 83.0817 17.0118 83.3471 16.9219C83.6125 16.8319 83.8397 16.697 84.0286 16.517C84.2175 16.3371 84.3614 16.1167 84.4604 15.8558L87.1188 16.0312C86.9838 16.67 86.7072 17.2277 86.2889 17.7045C85.8751 18.1768 85.3398 18.5457 84.6831 18.8111C84.0308 19.072 83.2774 19.2024 82.4228 19.2024ZM92.8741 19.1687C92.0869 19.1687 91.374 18.9663 90.7353 18.5614C90.101 18.1521 89.5972 17.5516 89.2239 16.7599C88.8551 15.9638 88.6706 14.9877 88.6706 13.8317C88.6706 12.6442 88.8618 11.6568 89.2441 10.8697C89.6265 10.078 90.1348 9.48651 90.769 9.09517C91.4077 8.69934 92.1072 8.50142 92.8674 8.50142C93.4476 8.50142 93.9312 8.60038 94.318 8.7983C94.7093 8.99171 95.0242 9.23461 95.2626 9.52699C95.5055 9.81487 95.6899 10.0982 95.8159 10.3771H95.9036V5.18182H98.7711V19H95.9373V17.3402H95.8159C95.6809 17.6281 95.4898 17.9137 95.2424 18.1971C94.9995 18.476 94.6824 18.7076 94.291 18.892C93.9042 19.0765 93.4319 19.1687 92.8741 19.1687ZM93.785 16.8814C94.2483 16.8814 94.6396 16.7554 94.959 16.5036C95.2828 16.2472 95.5302 15.8896 95.7012 15.4308C95.8766 14.9719 95.9643 14.4344 95.9643 13.8182C95.9643 13.2019 95.8788 12.6667 95.7079 12.2124C95.537 11.758 95.2896 11.4072 94.9657 11.1598C94.6419 10.9124 94.2483 10.7887 93.785 10.7887C93.3127 10.7887 92.9146 10.9169 92.5907 11.1733C92.2669 11.4297 92.0217 11.785 91.8553 12.2393C91.6889 12.6937 91.6056 13.2199 91.6056 13.8182C91.6056 14.4209 91.6889 14.954 91.8553 15.4173C92.0262 15.8761 92.2714 16.2359 92.5907 16.4968C92.9146 16.7532 93.3127 16.8814 93.785 16.8814ZM103.57 19H100.439L105.21 5.18182H108.975L113.738 19H110.607L107.146 8.33949H107.038L103.57 19ZM103.374 13.5685H110.769V15.8491H103.374V13.5685ZM115.403 19V8.63636H118.277V19H115.403ZM116.847 7.30043C116.419 7.30043 116.053 7.15874 115.747 6.87535C115.446 6.58748 115.295 6.24337 115.295 5.84304C115.295 5.44721 115.446 5.1076 115.747 4.82422C116.053 4.53634 116.419 4.3924 116.847 4.3924C117.274 4.3924 117.638 4.53634 117.94 4.82422C118.246 5.1076 118.399 5.44721 118.399 5.84304C118.399 6.24337 118.246 6.58748 117.94 6.87535C117.638 7.15874 117.274 7.30043 116.847 7.30043ZM124.399 19.1687C123.611 19.1687 122.898 18.9663 122.26 18.5614C121.625 18.1521 121.122 17.5516 120.748 16.7599C120.379 15.9638 120.195 14.9877 120.195 13.8317C120.195 12.6442 120.386 11.6568 120.769 10.8697C121.151 10.078 121.659 9.48651 122.293 9.09517C122.932 8.69934 123.632 8.50142 124.392 8.50142C124.972 8.50142 125.456 8.60038 125.842 8.7983C126.234 8.99171 126.549 9.23461 126.787 9.52699C127.03 9.81487 127.214 10.0982 127.34 10.3771H127.428V5.18182H130.296V19H127.462V17.3402H127.34C127.205 17.6281 127.014 17.9137 126.767 18.1971C126.524 18.476 126.207 18.7076 125.815 18.892C125.429 19.0765 124.956 19.1687 124.399 19.1687ZM125.309 16.8814C125.773 16.8814 126.164 16.7554 126.483 16.5036C126.807 16.2472 127.055 15.8896 127.226 15.4308C127.401 14.9719 127.489 14.4344 127.489 13.8182C127.489 13.2019 127.403 12.6667 127.232 12.2124C127.061 11.758 126.814 11.4072 126.49 11.1598C126.166 10.9124 125.773 10.7887 125.309 10.7887C124.837 10.7887 124.439 10.9169 124.115 11.1733C123.791 11.4297 123.546 11.785 123.38 12.2393C123.213 12.6937 123.13 13.2199 123.13 13.8182C123.13 14.4209 123.213 14.954 123.38 15.4173C123.551 15.8761 123.796 16.2359 124.115 16.4968C124.439 16.7532 124.837 16.8814 125.309 16.8814Z" fill="black"/>
</svg>
